<?xml version="1.0" encoding="UTF-8"?>
<svg width="37px" height="36px" viewBox="0 0 37 36" version="1.1" xmlns="http://www.w3.org/2000/svg" xmlns:xlink="http://www.w3.org/1999/xlink">
    <!-- Generator: Sketch 51.2 (57519) - http://www.bohemiancoding.com/sketch -->
    <title>Group 3</title>
    <desc>Created with Sketch.</desc>
    <defs>
        <polygon id="path-1" points="36.5723581 0.330963513 0 0.330963513 0 35.8787879 36.5723581 35.8787879 36.5723581 0.330963513"></polygon>
    </defs>
    <g id="Symbols" stroke="none" stroke-width="1" fill="none" fill-rule="evenodd">
        <g id="Navigation" transform="translate(-38.000000, -28.000000)">
            <g id="navigation" transform="translate(38.000000, 21.000000)">
                <g id="horizontal-logo" transform="translate(0.000000, 7.000000)">
                    <g id="Group-3" transform="translate(0.000000, 0.035366)">
                        <mask id="mask-2" fill="white">
                            <use xlink:href="#path-1"></use>
                        </mask>
                        <g id="Clip-2"></g>
                        <path d="M18.1803581,12.5755152 L0.687329524,0.40967718 C0.396358095,0.206852195 -0.00028952381,0.417731602 -0.00028952381,0.77505504 L-0.00028952381,4.25236858 C-0.00028952381,4.39881262 0.0706438095,4.53573779 0.190072381,4.61774644 L18.1933867,17.137979 C18.343939,17.2434187 18.5422629,17.2426865 18.6928152,17.1365145 L32.1737676,7.64254793 C32.4640152,7.43752628 32.8628343,7.64840569 32.8628343,8.00646135 L32.8628343,31.4953519 C32.8628343,31.7406456 32.6659581,31.9390773 32.4242057,31.9390773 L28.6705295,31.9390773 C28.4280533,31.9390773 28.231901,31.7406456 28.231901,31.4953519 L28.2297295,16.6759481 C28.2297295,16.3215535 27.8395962,16.1099419 27.547901,16.3061769 L18.4858057,22.4041064 C18.3374248,22.5044205 18.1441676,22.5036883 17.9965105,22.4019097 L0.779977143,10.592663 C0.489005714,10.3927669 0.0952533333,10.6036463 0.0952533333,10.9595053 L0.0952533333,35.4346964 C0.0952533333,35.6799901 0.291405714,35.879154 0.533881905,35.879154 L11.5784914,35.879154 C11.8209676,35.879154 12.01712,35.6799901 12.01712,35.4346964 L12.01712,28.449316 C12.01712,28.3014075 11.944739,28.1630179 11.823139,28.0802771 L8.99159619,26.1596636 C8.69990095,25.9619641 8.30832,26.1728435 8.30832,26.5279703 L8.30832,31.6828002 C8.30832,31.9273618 8.11144381,32.1265257 7.86969143,32.1265257 L4.24340571,32.1265257 C4.00092952,32.1265257 3.80477714,31.9273618 3.80477714,31.6828002 L3.80477714,18.0378776 C3.80477714,17.6820186 4.19852952,17.4711391 4.48950095,17.670303 L9.10451048,20.836423 L9.10523429,20.8349586 L14.7067962,24.6351812 L14.6865295,24.6652022 L17.9769676,26.922637 C18.1246248,27.0236834 18.3178819,27.0244156 18.4662629,26.9248336 L23.839101,23.3091305 C24.1307962,23.1128955 24.5209295,23.3237749 24.5209295,23.6781694 L24.5223771,35.2479802 C24.5223771,35.4925417 24.7192533,35.6917056 24.9617295,35.6917056 L36.1330057,35.6917056 C36.3754819,35.6917056 36.5723581,35.4925417 36.5723581,35.247248 L36.5723581,0.82191713 C36.5723581,0.463129252 36.173539,0.252249845 35.8825676,0.45727149 L18.6790629,12.5740507 C18.5292343,12.6794904 18.3309105,12.6802226 18.1803581,12.5755152" id="Fill-1" fill="#FDD835" mask="url(#mask-2)"></path>
                    </g>
                </g>
            </g>
        </g>
    </g>
</svg>